<svg xmlns="http://www.w3.org/2000/svg" viewBox="0 0 960 420" role="img" aria-labelledby="title desc">
  <title id="title">Paralives-inspired seaside town</title>
  <desc id="desc">A lightweight pastel illustration of houses, cliffs, trees, sky, and sea.</desc>
  <defs>
    <linearGradient id="sky" x1="0" x2="1" y1="0" y2="1">
      <stop offset="0" stop-color="#9ee0f5"/>
      <stop offset=".58" stop-color="#c0e0e0"/>
      <stop offset="1" stop-color="#fff3a0"/>
    </linearGradient>
    <linearGradient id="sea" x1="0" x2="1">
      <stop offset="0" stop-color="#5bc4e8"/>
      <stop offset="1" stop-color="#b8e8d4"/>
    </linearGradient>
    <filter id="softShadow" x="-20%" y="-20%" width="140%" height="140%">
      <feDropShadow dx="0" dy="10" stdDeviation="14" flood-color="#2a3832" flood-opacity=".18"/>
    </filter>
  </defs>
  <rect width="960" height="420" fill="url(#sky)"/>
  <path fill="#fff9f4" opacity=".82" d="M74 74c36-36 88-32 116-3 33-20 88-9 110 35 37-3 74 18 90 52H37c-8-35 4-66 37-84Zm555-9c45-36 101-23 132 12 45-18 94 0 116 40 25 1 48 13 61 34H590c-3-33 11-64 39-86Z"/>
  <path fill="url(#sea)" opacity=".86" d="M605 210c112-28 242-17 355 16v194H590c-31-79-26-154 15-210Z"/>
  <path fill="#e0c080" d="M0 246c154-70 333-63 493-8 68 23 155 17 231 5 30 52 28 118-1 177H0Z"/>
  <path fill="#c0a080" opacity=".62" d="M0 326c109-24 201-19 289 13 94 35 230 29 341 3 38-9 70-12 99-9-3 30-10 59-25 87H0Z"/>
  <g filter="url(#softShadow)">
    <g transform="translate(152 154)">
      <rect x="0" y="42" width="124" height="86" rx="8" fill="#ffb89a"/>
      <path d="M-10 48 62 0l72 48Z" fill="#3c342f"/>
      <rect x="18" y="66" width="28" height="35" rx="4" fill="#9ee0f5"/>
      <rect x="78" y="66" width="28" height="35" rx="4" fill="#9ee0f5"/>
      <rect x="50" y="88" width="28" height="40" rx="5" fill="#5a8f6e"/>
    </g>
    <g transform="translate(326 130)">
      <rect x="0" y="50" width="140" height="112" rx="8" fill="#b8e0f0"/>
      <path d="M-8 58 70 0l78 58Z" fill="#2a3832"/>
      <rect x="24" y="76" width="28" height="32" rx="4" fill="#fff9f4"/>
      <rect x="88" y="76" width="28" height="32" rx="4" fill="#fff9f4"/>
      <rect x="55" y="116" width="31" height="46" rx="5" fill="#6b9b7b"/>
    </g>
    <g transform="translate(525 112)">
      <rect x="0" y="62" width="118" height="122" rx="8" fill="#e0c0a0"/>
      <path d="M-8 68 59 8l67 60Z" fill="#5c6e66"/>
      <rect x="22" y="86" width="24" height="30" rx="4" fill="#b8e8d4"/>
      <rect x="74" y="86" width="24" height="30" rx="4" fill="#b8e8d4"/>
      <rect x="47" y="130" width="30" height="54" rx="5" fill="#3d8f66"/>
    </g>
    <g transform="translate(670 88)">
      <rect x="22" y="40" width="88" height="160" rx="12" fill="#d4c4f5"/>
      <path d="M13 51 66 0l53 51Z" fill="#6b9b7b"/>
      <rect x="47" y="80" width="36" height="34" rx="8" fill="#fff9f4"/>
      <rect x="54" y="145" width="24" height="55" rx="10" fill="#5c6e66"/>
    </g>
  </g>
  <g fill="#206040">
    <circle cx="98" cy="253" r="40"/>
    <circle cx="126" cy="226" r="31"/>
    <circle cx="128" cy="279" r="30"/>
    <circle cx="789" cy="250" r="36"/>
    <circle cx="825" cy="222" r="42"/>
    <circle cx="838" cy="276" r="33"/>
  </g>
  <g fill="#5cb88a">
    <circle cx="226" cy="274" r="26"/>
    <circle cx="488" cy="265" r="26"/>
    <circle cx="604" cy="274" r="22"/>
    <circle cx="755" cy="290" r="20"/>
  </g>
  <g stroke="#3d8f66" stroke-linecap="round" stroke-width="8">
    <path d="M94 290v80M127 264v94M789 284v74M826 270v88"/>
  </g>
  <path fill="#2a3832" opacity=".24" d="M367 326h240c27 0 49 22 49 49v45H318v-45c0-27 22-49 49-49Z"/>
  <path fill="#202020" opacity=".58" d="M397 420v-65c0-13 11-24 24-24h136c13 0 24 11 24 24v65Z"/>
</svg>
